<svg xmlns="http://www.w3.org/2000/svg" width="1800" height="1100" viewBox="0 0 1800 1100" role="img" aria-label="系统总体架构">
  <defs>
    <pattern id="grid" width="40" height="40" patternUnits="userSpaceOnUse">
      <path d="M 40 0 L 0 0 0 40" fill="none" stroke="#e6edf5" stroke-width="1"/>
    </pattern>
    <marker id="arrow-slate" markerWidth="14" markerHeight="14" refX="10" refY="7" orient="auto" markerUnits="strokeWidth"><path d="M2,2 L12,7 L2,12 z" fill="#475467"/></marker>
    <marker id="arrow-green" markerWidth="14" markerHeight="14" refX="10" refY="7" orient="auto" markerUnits="strokeWidth"><path d="M2,2 L12,7 L2,12 z" fill="#16a34a"/></marker>
    <marker id="arrow-blue" markerWidth="14" markerHeight="14" refX="10" refY="7" orient="auto" markerUnits="strokeWidth"><path d="M2,2 L12,7 L2,12 z" fill="#2f80ed"/></marker>
    <marker id="arrow-red" markerWidth="14" markerHeight="14" refX="10" refY="7" orient="auto" markerUnits="strokeWidth"><path d="M2,2 L12,7 L2,12 z" fill="#e5484d"/></marker>
    <marker id="arrow-purple" markerWidth="14" markerHeight="14" refX="10" refY="7" orient="auto" markerUnits="strokeWidth"><path d="M2,2 L12,7 L2,12 z" fill="#7c3aed"/></marker>
    <filter id="soft-shadow" x="-10%" y="-10%" width="120%" height="130%">
      <feDropShadow dx="0" dy="10" stdDeviation="12" flood-color="#101828" flood-opacity="0.10"/>
    </filter>
  </defs>
  <rect width="1800" height="1100" fill="#f7f9fc"/>
  <rect width="1800" height="1100" fill="url(#grid)" opacity="0.42"/>
  <rect x="54" y="46" width="1692" height="1008" rx="28" fill="#ffffff" stroke="#d0d5dd" stroke-width="1.5" filter="url(#soft-shadow)"/>
  <rect x="54" y="46" width="1692" height="10" rx="5" fill="#2f80ed"/>
  <circle cx="106" cy="98" r="22" fill="#2f80ed" opacity="0.16"/>
  <circle cx="106" cy="98" r="8" fill="#2f80ed"/>
  <text x="142" y="96" text-anchor="start" font-family="Inter, Noto Sans CJK SC, Microsoft YaHei, PingFang SC, Arial, sans-serif" font-size="38" font-weight="850" fill="#101828">系统总体架构</text>
  <text x="142" y="132" text-anchor="start" font-family="Inter, Noto Sans CJK SC, Microsoft YaHei, PingFang SC, Arial, sans-serif" font-size="19" font-weight="400" fill="#667085">Neo 继续负责链语义；Adapter 和 Rust Host 提供沙盒化 RISC-V 执行栈。</text>
  
    <g filter="url(#soft-shadow)">
    <rect x="110" y="175" width="420" height="155" rx="18" fill="#eafaf0" stroke="#16a34a" stroke-width="2"/>
    <rect x="132" y="195" width="54" height="54" rx="14" fill="#ffffff" stroke="#16a34a" stroke-width="1.5"/>
    <g fill="none" stroke="#16a34a" stroke-width="2.0400000000000005" stroke-linecap="round" stroke-linejoin="round">
      <rect x="144.31199999999998" y="215.3904" width="13.953600000000002" height="10.281600000000003" rx="5.140800000000001"/>
      <rect x="159.7344" y="215.3904" width="13.953600000000002" height="10.281600000000003" rx="5.140800000000001"/>
      <path d="M 156.0624 220.53119999999998 L 161.93759999999997 220.53119999999998"/>
    </g>
    <text x="210" y="227" text-anchor="start" font-family="Inter, Noto Sans CJK SC, Microsoft YaHei, PingFang SC, Arial, sans-serif" font-size="24" font-weight="800" fill="#101828">用户、dApp、合约</text>
    <text x="140" y="263" text-anchor="start" font-family="Inter, Noto Sans CJK SC, Microsoft YaHei, PingFang SC, Arial, sans-serif" font-size="17" font-weight="400" fill="#344054">RPC / 交易 / 旧 NeoVM NEF / 原生 RISC-V NEF</text>
  </g>
    <g filter="url(#soft-shadow)">
    <rect x="690" y="170" width="490" height="165" rx="18" fill="#edf5ff" stroke="#2f80ed" stroke-width="2"/>
    <rect x="712" y="190" width="54" height="54" rx="14" fill="#ffffff" stroke="#2f80ed" stroke-width="1.5"/>
    <g fill="none" stroke="#2f80ed" stroke-width="2.0400000000000005" stroke-linecap="round" stroke-linejoin="round">
      <ellipse cx="739" cy="207.4528" rx="12.484800000000003" ry="4.773600000000001"/>
      <path d="M 726.5151999999999 207.4528 v 16.524000000000004 c 0 2.9376000000000007 5.508000000000001 4.773600000000001 12.484800000000003 4.773600000000001 c 6.976800000000001 0 12.484800000000003 -1.8360000000000003 12.484800000000003 -4.773600000000001 v -16.524000000000004"/>
      <path d="M 726.5151999999999 215.53119999999998 c 0 2.9376000000000007 5.508000000000001 4.773600000000001 12.484800000000003 4.773600000000001 c 6.976800000000001 0 12.484800000000003 -1.8360000000000003 12.484800000000003 -4.773600000000001"/>
    </g>
    <text x="790" y="222" text-anchor="start" font-family="Inter, Noto Sans CJK SC, Microsoft YaHei, PingFang SC, Arial, sans-serif" font-size="24" font-weight="800" fill="#101828">Neo Core / Node（C#）</text>
    <text x="720" y="258" text-anchor="start" font-family="Inter, Noto Sans CJK SC, Microsoft YaHei, PingFang SC, Arial, sans-serif" font-size="17" font-weight="400" fill="#344054">ApplicationEngine、账本、存储、gas、权限、原生合约</text>
  </g>
    <g filter="url(#soft-shadow)">
    <rect x="1295" y="175" width="360" height="155" rx="18" fill="#f3ecff" stroke="#7c3aed" stroke-width="2"/>
    <rect x="1317" y="195" width="54" height="54" rx="14" fill="#ffffff" stroke="#7c3aed" stroke-width="1.5"/>
    <g fill="none" stroke="#7c3aed" stroke-width="2.0400000000000005" stroke-linecap="round" stroke-linejoin="round">
      <path d="M 1333.7184000000002 217.59359999999998 h 7.344000000000001 v -3.6720000000000006 a 3.3048000000000006 3.3048000000000006 0 0 1 6.609600000000001 0 v 3.6720000000000006 h 7.344000000000001 v 7.344000000000001 h 3.6720000000000006 a 3.3048000000000006 3.3048000000000006 0 0 1 0 6.609600000000001 h -3.6720000000000006 v 7.344000000000001 h -7.344000000000001 v 3.6720000000000006 a 3.3048000000000006 3.3048000000000006 0 0 1 -6.609600000000001 0 v -3.6720000000000006 h -7.344000000000001 z"/>
    </g>
    <text x="1395" y="227" text-anchor="start" font-family="Inter, Noto Sans CJK SC, Microsoft YaHei, PingFang SC, Arial, sans-serif" font-size="24" font-weight="800" fill="#101828">Adapter 插件</text>
    <text x="1325" y="263" text-anchor="start" font-family="Inter, Noto Sans CJK SC, Microsoft YaHei, PingFang SC, Arial, sans-serif" font-size="17" font-weight="400" fill="#344054">注册 Provider；P/Invoke 调 Rust host</text>
  </g>
    <g>
    <path d="M 530 252 L 690 252" fill="none" stroke="#16a34a" stroke-width="3.2" stroke-linecap="round" marker-end="url(#arrow-green)"/>
    <g><rect x="550" y="211" width="120" height="39" rx="8" fill="#ffffff" stroke="#d0d5dd" opacity="0.96"/><text x="610" y="234" text-anchor="middle" font-family="Inter, Noto Sans CJK SC, Microsoft YaHei, PingFang SC, Arial, sans-serif" font-size="14" font-weight="800" fill="#16a34a">Neo 调用</text></g>
  </g>
    <g>
    <path d="M 1180 252 L 1295 252" fill="none" stroke="#7c3aed" stroke-width="3.2" stroke-linecap="round" marker-end="url(#arrow-purple)"/>
    <g><rect x="1177.5" y="211" width="120" height="39" rx="8" fill="#ffffff" stroke="#d0d5dd" opacity="0.96"/><text x="1237.5" y="234" text-anchor="middle" font-family="Inter, Noto Sans CJK SC, Microsoft YaHei, PingFang SC, Arial, sans-serif" font-size="14" font-weight="800" fill="#7c3aed">Provider</text></g>
  </g>
    <g filter="url(#soft-shadow)">
    <rect x="310" y="475" width="500" height="190" rx="18" fill="#fff7df" stroke="#f59e0b" stroke-width="2"/>
    <rect x="332" y="495" width="54" height="54" rx="14" fill="#ffffff" stroke="#f59e0b" stroke-width="1.5"/>
    <g fill="none" stroke="#f59e0b" stroke-width="2.0400000000000005" stroke-linecap="round" stroke-linejoin="round">
      <circle cx="359" cy="522" r="7.344000000000001"/>
      <path d="M 359 506.57759999999996 v 5.875200000000001 M 359 531.5472 v 5.875200000000001 M 343.57759999999996 522 h 5.875200000000001 M 368.5472 522 h 5.875200000000001 M 347.984 510.984 l 4.4064000000000005 4.4064000000000005 M 365.6096 528.6096 l 4.4064000000000005 4.4064000000000005 M 370.01599999999996 510.984 l -4.4064000000000005 4.4064000000000005 M 352.3904 528.6096 l -4.4064000000000005 4.4064000000000005"/>
    </g>
    <text x="410" y="527" text-anchor="start" font-family="Inter, Noto Sans CJK SC, Microsoft YaHei, PingFang SC, Arial, sans-serif" font-size="24" font-weight="800" fill="#101828">Rust Host Runtime</text>
    <text x="340" y="563" text-anchor="start" font-family="Inter, Noto Sans CJK SC, Microsoft YaHei, PingFang SC, Arial, sans-serif" font-size="17" font-weight="400" fill="#344054">FFI、缓存、PolkaVM Engine、实例池、ABI 封送</text>
  </g>
    <g filter="url(#soft-shadow)">
    <rect x="990" y="475" width="500" height="190" rx="18" fill="#e7fbfd" stroke="#0097a7" stroke-width="2"/>
    <rect x="1012" y="495" width="54" height="54" rx="14" fill="#ffffff" stroke="#0097a7" stroke-width="1.5"/>
    <g fill="none" stroke="#0097a7" stroke-width="2.0400000000000005" stroke-linecap="round" stroke-linejoin="round">
      <path d="M 1039 507.312 L 1051.4848 512.4528 v 10.281600000000003 c 0 8.812800000000001 -5.140800000000001 13.219200000000003 -12.484800000000003 16.891200000000005 c -7.344000000000001 -3.6720000000000006 -12.484800000000003 -8.078400000000002 -12.484800000000003 -16.891200000000005 v -10.281600000000003 z"/>
      <path d="M 1033.8592 522.7343999999999 l 3.6720000000000006 3.6720000000000006 l 8.078400000000002 -9.547200000000002"/>
    </g>
    <text x="1090" y="527" text-anchor="start" font-family="Inter, Noto Sans CJK SC, Microsoft YaHei, PingFang SC, Arial, sans-serif" font-size="24" font-weight="800" fill="#101828">PolkaVM / RISC-V Guest</text>
    <text x="1020" y="563" text-anchor="start" font-family="Inter, Noto Sans CJK SC, Microsoft YaHei, PingFang SC, Arial, sans-serif" font-size="17" font-weight="400" fill="#344054">guest.polkavm 内置 NeoVM interpreter；PVM 可直跑</text>
  </g>
    <g>
    <path d="M 1475 330 C 1835 330, 310 475, 670 475" fill="none" stroke="#475467" stroke-width="3.2" stroke-linecap="round" marker-end="url(#arrow-slate)"/>
    <g><rect x="1012.5" y="361.5" width="120" height="39" rx="8" fill="#ffffff" stroke="#d0d5dd" opacity="0.96"/><text x="1072.5" y="384.5" text-anchor="middle" font-family="Inter, Noto Sans CJK SC, Microsoft YaHei, PingFang SC, Arial, sans-serif" font-size="14" font-weight="800" fill="#475467">P/Invoke</text></g>
  </g>
    <g>
    <path d="M 810 563 L 990 563" fill="none" stroke="#0097a7" stroke-width="3.2" stroke-linecap="round" marker-end="url(#arrow-blue)"/>
    <g><rect x="840" y="522" width="120" height="39" rx="8" fill="#ffffff" stroke="#d0d5dd" opacity="0.96"/><text x="900" y="545" text-anchor="middle" font-family="Inter, Noto Sans CJK SC, Microsoft YaHei, PingFang SC, Arial, sans-serif" font-size="14" font-weight="800" fill="#0097a7">沙盒执行</text></g>
  </g>
    <g>
    <rect x="150" y="760" width="430" height="170" rx="16" fill="#edf5ff" stroke="#2f80ed" stroke-width="1.8"/>
    <path d="M 172 784 h 42" stroke="#2f80ed" stroke-width="5" stroke-linecap="round"/>
    <text x="174" y="818" text-anchor="start" font-family="Inter, Noto Sans CJK SC, Microsoft YaHei, PingFang SC, Arial, sans-serif" font-size="22" font-weight="850" fill="#101828">C# 是语义事实源</text>
    <text x="174" y="852" text-anchor="start" font-family="Inter, Noto Sans CJK SC, Microsoft YaHei, PingFang SC, Arial, sans-serif" font-size="15" font-weight="400" fill="#344054">syscall、原生合约、权限、gas 与链状态不在 Rust 里重写。</text>
  </g>
    <g>
    <rect x="685" y="760" width="430" height="170" rx="16" fill="#fff7df" stroke="#f59e0b" stroke-width="1.8"/>
    <path d="M 707 784 h 42" stroke="#f59e0b" stroke-width="5" stroke-linecap="round"/>
    <text x="709" y="818" text-anchor="start" font-family="Inter, Noto Sans CJK SC, Microsoft YaHei, PingFang SC, Arial, sans-serif" font-size="22" font-weight="850" fill="#101828">Rust 负责执行边界</text>
    <text x="709" y="852" text-anchor="start" font-family="Inter, Noto Sans CJK SC, Microsoft YaHei, PingFang SC, Arial, sans-serif" font-size="15" font-weight="400" fill="#344054">缓存、FFI、PolkaVM 沙盒、结果封送和诊断放在 host</text>
<text x="709" y="873" text-anchor="start" font-family="Inter, Noto Sans CJK SC, Microsoft YaHei, PingFang SC, Arial, sans-serif" font-size="15" font-weight="400" fill="#344054">runtime。</text>
  </g>
    <g>
    <rect x="1220" y="760" width="430" height="170" rx="16" fill="#eafaf0" stroke="#16a34a" stroke-width="1.8"/>
    <path d="M 1242 784 h 42" stroke="#16a34a" stroke-width="5" stroke-linecap="round"/>
    <text x="1244" y="818" text-anchor="start" font-family="Inter, Noto Sans CJK SC, Microsoft YaHei, PingFang SC, Arial, sans-serif" font-size="22" font-weight="850" fill="#101828">协议保持 Neo N3 兼容</text>
    <text x="1244" y="852" text-anchor="start" font-family="Inter, Noto Sans CJK SC, Microsoft YaHei, PingFang SC, Arial, sans-serif" font-size="15" font-weight="400" fill="#344054">交易格式、RPC、SDK、旧合约调用方式对用户保持一致。</text>
  </g>
  
</svg>
